# xmcd CD database file
#
# Track frame offsets:
#	150
#	12836
#	29186
#	49781
#	70850
#	82660
#	98550
#	123384
#	140718
#	157973
#	184638
#	199364
#	212115
#	234456
#	254010
#	271365
#	287054
#	298375
#	315623
#	330256
#
# Disc length: 4634 seconds
#
# Revision: 1
# Processed by: cddbd v1.5.2PL0 Copyright (c) Steve Scherf et al.
# Submitted via: CDex 1.51
#
DISCID=2c121814
DTITLE=Doug Spartz - The One Who's Leavin'
DYEAR=2007
DGENRE=Country
TTITLE0=Risky World
TTITLE1=Forever Young
TTITLE2=Flight of Jesse James
TTITLE3=The Lord He Left You
TTITLE4=Galveston
TTITLE5=Wine Into Water
TTITLE6=Tombstone Mansion
TTITLE7=Ring Them Bells
TTITLE8=Time To Get a Gun
TTITLE9=Talkin' Americana Blues
TTITLE10=Pederson and Jesus
TTITLE11=Golden Slumbers
TTITLE12=Bride of Little Milton
TTITLE13=The One Who's Leavin'
TTITLE14=All Is Well
TTITLE15=Still Waters
TTITLE16=Old Jack Morgan
TTITLE17=I Had Friends Who Loved Me
TTITLE18=I've Always Been Crazy
TTITLE19=Dude's Dream #26 (All The Young Dudes)
EXTD=YEAR: 2007
EXTT0=
EXTT1=
EXTT2=
EXTT3=
EXTT4=
EXTT5=
EXTT6=
EXTT7=
EXTT8=
EXTT9=
EXTT10=
EXTT11=
EXTT12=
EXTT13=
EXTT14=
EXTT15=
EXTT16=
EXTT17=
EXTT18=
EXTT19=
PLAYORDER=
